<svg xmlns="http://www.w3.org/2000/svg" viewBox="0 0 500 500"><defs><style>.cls-1{fill:#f3f5f6;}.cls-2{fill:#121f39;}.cls-3{fill:#1d1d1b;}.cls-4{fill:#2e2a49;}</style></defs><g id="OBJECTS"><circle class="cls-1" cx="250" cy="250" r="250" transform="translate(-103.55 250) rotate(-45)"/><polygon class="cls-2" points="250 460.6 66.28 351.19 66.28 276.88 250 386.29 250 460.6"/><polygon class="cls-3" points="433.72 377.58 250 486.99 250 412.67 433.72 303.27 433.72 377.58"/><polygon class="cls-2" points="250 43 433.72 152.4 433.72 226.72 250 117.31 250 43"/><polygon class="cls-3" points="66.28 128.42 250 19.01 250 93.32 66.28 202.73 66.28 128.42"/><path class="cls-4" d="M132.28,232.61a21.54,21.54,0,0,0,10.91,3.08c6.22,0,9.86-3.29,9.86-8.05,0-4.4-2.52-6.92-8.88-9.37-7.7-2.73-12.45-6.72-12.45-13.36,0-7.34,6.08-12.8,15.24-12.8a21.44,21.44,0,0,1,10.43,2.31l-1.68,5a18.66,18.66,0,0,0-9-2.24c-6.44,0-8.89,3.84-8.89,7.06,0,4.41,2.87,6.58,9.38,9.09,8,3.08,12,6.93,12,13.85,0,7.28-5.39,13.57-16.51,13.57-4.55,0-9.51-1.33-12-3Z"/><path class="cls-4" d="M175.23,225.2,170.33,240H164l16-47.14h7.35L203.48,240H197l-5-14.82Zm15.45-4.76-4.61-13.57c-1-3.08-1.75-5.88-2.45-8.6h-.14c-.7,2.79-1.47,5.66-2.38,8.53l-4.62,13.64Z"/><path class="cls-4" d="M207.19,236.46l26.16-38.26V198H209.43v-5.11h31.83v3.71l-26,38.12v.21h26.37V240H207.19Z"/><path class="cls-4" d="M245.87,236.46,272,198.2V198H248.11v-5.11h31.83v3.71l-26,38.12v.21h26.37V240H245.87Z"/><path class="cls-4" d="M295.4,225.2,290.5,240h-6.3l16-47.14h7.35L323.66,240h-6.51l-5-14.82Zm15.46-4.76-4.62-13.57c-1.05-3.08-1.75-5.88-2.45-8.6h-.14c-.7,2.79-1.47,5.66-2.38,8.53l-4.62,13.64Z"/><path class="cls-4" d="M330.58,193.51a87.09,87.09,0,0,1,12.94-1c8.74,0,15,2,19.1,5.88s6.64,9.3,6.64,16.92-2.38,14-6.78,18.33-11.68,6.78-20.85,6.78a95.92,95.92,0,0,1-11.05-.56Zm6.09,41.69a38.25,38.25,0,0,0,6.15.35c13,0,20.08-7.28,20.08-20,.07-11.12-6.23-18.18-19.1-18.18a34.42,34.42,0,0,0-7.13.63Z"/><path class="cls-4" d="M139.8,260v19.73h22.8V260h6.16v47.15H162.6V285.05H139.8v22.11h-6.09V260Z"/><path class="cls-4" d="M219.61,283.09c0,16.23-9.87,24.83-21.9,24.83-12.45,0-21.19-9.65-21.19-23.92,0-15,9.3-24.76,21.89-24.76C211.28,259.24,219.61,269.11,219.61,283.09Zm-36.59.77c0,10.08,5.46,19.1,15,19.1s15.11-8.88,15.11-19.59c0-9.37-4.89-19.16-15-19.16S183,273.51,183,283.86Z"/><path class="cls-4" d="M226.67,299.74a21.58,21.58,0,0,0,10.92,3.08c6.22,0,9.86-3.29,9.86-8,0-4.41-2.52-6.93-8.89-9.38-7.69-2.73-12.45-6.71-12.45-13.36,0-7.34,6.09-12.8,15.25-12.8a21.44,21.44,0,0,1,10.43,2.31l-1.68,5a18.79,18.79,0,0,0-9-2.24c-6.43,0-8.88,3.84-8.88,7.06,0,4.41,2.87,6.58,9.37,9.1,8,3.08,12,6.92,12,13.85,0,7.27-5.38,13.57-16.5,13.57-4.55,0-9.52-1.33-12-3Z"/><path class="cls-4" d="M261.16,299.74a21.54,21.54,0,0,0,10.91,3.08c6.22,0,9.86-3.29,9.86-8,0-4.41-2.52-6.93-8.88-9.38-7.7-2.73-12.45-6.71-12.45-13.36,0-7.34,6.08-12.8,15.24-12.8a21.44,21.44,0,0,1,10.43,2.31l-1.68,5a18.78,18.78,0,0,0-8.95-2.24c-6.44,0-8.89,3.84-8.89,7.06,0,4.41,2.87,6.58,9.38,9.1,8,3.08,12,6.92,12,13.85,0,7.27-5.39,13.57-16.51,13.57-4.55,0-9.51-1.33-12-3Z"/><path class="cls-4" d="M320.89,285.05H302.57v17H323v5.11H296.48V260h25.46v5.11H302.57V280h18.32Z"/><path class="cls-4" d="M330.89,307.16V260h6.65l15.11,23.85a134.14,134.14,0,0,1,8.46,15.32l.14-.07c-.56-6.29-.7-12-.7-19.37V260h5.74v47.15h-6.16l-15-23.93a149.53,149.53,0,0,1-8.82-15.73l-.21.07c.35,5.94.49,11.61.49,19.44v20.15Z"/></g></svg>