<svg xmlns="http://www.w3.org/2000/svg" viewBox="0 0 500 500"><defs><style>.cls-1{fill:#fff;}.cls-2{fill:#302c4d;}.cls-3{fill:#657e92;}.cls-4{fill:#a3b2be;}.cls-5{fill:#083b7c;}</style></defs><g id="OBJECTS"><circle class="cls-1" cx="250" cy="250" r="250" transform="translate(-103.55 250) rotate(-45)"/><polygon class="cls-2" points="228.67 286.88 101.07 210.9 101.07 159.29 228.67 235.27 228.67 286.88"/><polygon class="cls-3" points="101.07 210.22 228.67 286.2 228.67 337.81 101.07 261.83 101.07 210.22"/><polygon class="cls-4" points="101.07 364.51 228.67 288.52 228.67 340.13 101.07 416.12 101.07 364.51"/><polygon class="cls-4" points="101.07 209.57 228.67 133.58 228.67 185.19 101.07 261.18 101.07 209.57"/><polygon class="cls-5" points="228.67 134.26 101.07 210.25 101.07 158.64 228.67 82.65 228.67 134.26"/><polygon class="cls-5" points="228.67 287.73 101.07 363.71 101.07 312.1 228.67 236.11 228.67 287.73"/><rect class="cls-5" x="275.53" y="165.77" width="21.3" height="21.3"/><rect class="cls-3" x="311.27" y="142.59" width="33.38" height="33.38"/><rect class="cls-2" x="357.19" y="126.75" width="33.38" height="33.38"/><rect class="cls-5" x="320.37" y="68.14" width="48.5" height="48.5"/><rect class="cls-2" x="265.71" y="88.87" width="40.94" height="40.94"/><path class="cls-2" d="M289.56,223.4v66.53h76.92V223.4h20.76v159H366.48V307.86H289.56v74.56H269v-159Z"/></g></svg>