<svg xmlns="http://www.w3.org/2000/svg" viewBox="0 0 500 500"><defs><style>.cls-1{fill:#121f39;}.cls-2{fill:#fff;}</style></defs><g id="OBJECTS"><circle class="cls-1" cx="250" cy="250" r="250" transform="translate(-103.55 250) rotate(-45)"/><polygon class="cls-2" points="161.67 257.42 162.01 181.28 119.24 180.96 119.24 257.42 161.67 257.42"/><polygon class="cls-2" points="380.42 364.65 380.76 160.82 338.6 175.89 338.35 346.37 380.42 364.65"/><polygon class="cls-2" points="301.29 297.08 301.63 151.18 259.47 135.35 259.22 312.96 301.29 297.08"/><polygon class="cls-2" points="339.05 236.88 300.69 236.66 300.58 263.06 339.05 263.22 339.05 236.88"/><polygon class="cls-2" points="241.78 319.15 241.78 242.62 199.02 242.41 198.77 318.75 241.78 319.15"/><polygon class="cls-2" points="241.78 135.35 119.24 180.96 119.24 211.86 241.78 166.37 241.78 135.35"/><polygon class="cls-2" points="241.78 211.75 119.24 257.07 119.24 288.14 241.78 242.28 241.78 211.75"/><polygon class="cls-2" points="241.78 288.25 119.24 333.75 119.24 364.65 241.78 319.15 241.78 288.25"/></g></svg>