<svg xmlns="http://www.w3.org/2000/svg" viewBox="0 0 500 500"><defs><style>.cls-1{fill:#eef2f5;}.cls-2{fill:#121f39;}</style></defs><g id="OBJECTS"><circle class="cls-1" cx="250" cy="250" r="250" transform="translate(-103.55 250) rotate(-45)"/><polygon class="cls-2" points="132.78 259.84 133.24 158.81 76.48 158.39 76.48 259.84 132.78 259.84"/><polygon class="cls-2" points="423.06 402.14 423.52 131.65 367.58 151.66 367.25 377.89 423.06 402.14"/><polygon class="cls-2" points="318.06 312.48 318.51 118.87 262.57 97.86 262.24 333.55 318.06 312.48"/><polygon class="cls-2" points="368.17 232.59 317.26 232.3 317.12 267.33 368.17 267.54 368.17 232.59"/><polygon class="cls-2" points="239.1 341.77 239.1 240.21 182.35 239.93 182.02 341.24 239.1 341.77"/><polygon class="cls-2" points="239.1 97.86 76.48 158.39 76.48 199.39 239.1 139.02 239.1 97.86"/><polygon class="cls-2" points="239.1 199.24 76.48 259.38 76.48 300.61 239.1 239.75 239.1 199.24"/><polygon class="cls-2" points="239.1 300.76 76.48 361.13 76.48 402.14 239.1 341.77 239.1 300.76"/></g></svg>